<svg width="19" height="26" viewBox="0 0 19 26" fill="none" xmlns="http://www.w3.org/2000/svg">
<path d="M11.3698 12.9984L1.87784 4.91463L1.87634 4.91334C1.37904 4.48642 1.06987 3.87779 1.01284 3.22194C0.955812 2.56617 1.15509 1.91248 1.56984 1.40394C1.98488 0.895037 2.58267 0.572441 3.23365 0.510775C3.88474 0.449099 4.53159 0.653939 5.03249 1.0774L5.03249 1.0774L5.03388 1.07858L16.7771 11.0803L16.7775 11.0808C17.0536 11.3165 17.2748 11.6106 17.4264 11.9418C17.5779 12.273 17.6562 12.6336 17.6562 12.9984C17.6562 13.3631 17.5779 13.7238 17.4264 14.055C17.2748 14.3862 17.0536 14.6803 16.7775 14.916L16.7771 14.9164L5.03388 24.9181L5.03347 24.9185C4.53282 25.344 3.8852 25.5504 3.23293 25.4895C2.58077 25.4286 1.9817 25.1058 1.56595 24.596C1.15052 24.0867 0.951289 23.4317 1.00925 22.7749C1.06721 22.118 1.37809 21.5088 1.87732 21.0825L1.87784 21.0821L11.3698 12.9984Z" fill="#004B9D" stroke="#004B9D"/>
</svg>
