<svg xmlns="http://www.w3.org/2000/svg" xmlns:xlink="http://www.w3.org/1999/xlink" viewBox="0,0,256,256" width="30px" height="30px" fill-rule="nonzero"><g transform="translate(68.26667,68.26667) scale(0.46667,0.46667)"><g fill="#ffffff" fill-rule="nonzero" stroke="none" stroke-width="1" stroke-linecap="butt" stroke-linejoin="miter" stroke-miterlimit="10" stroke-dasharray="" stroke-dashoffset="0" font-family="none" font-weight="none" font-size="none" text-anchor="none" style="mix-blend-mode: normal"><path d="M-146.28571,402.28571v-548.57143h548.57143v548.57143z" id="bgRectangle"></path></g><g fill="#ffffff" fill-rule="nonzero" stroke="none" stroke-width="1" stroke-linecap="butt" stroke-linejoin="miter" stroke-miterlimit="10" stroke-dasharray="" stroke-dashoffset="0" font-family="none" font-weight="none" font-size="none" text-anchor="none" style="mix-blend-mode: normal"><path d="M128,385.28c-142.09182,0 -257.28,-115.18818 -257.28,-257.28v0c0,-142.09182 115.18818,-257.28 257.28,-257.28v0c142.09182,0 257.28,115.18818 257.28,257.28v0c0,142.09182 -115.18818,257.28 -257.28,257.28z" id="shape"></path></g><g fill="#004b9d" fill-rule="nonzero" stroke="none" stroke-width="1" stroke-linecap="butt" stroke-linejoin="miter" stroke-miterlimit="10" stroke-dasharray="" stroke-dashoffset="0" font-family="none" font-weight="none" font-size="none" text-anchor="none" style="mix-blend-mode: normal"><g transform="scale(8.53333,8.53333)"><path d="M7,4c-0.25587,0 -0.51203,0.09747 -0.70703,0.29297l-2,2c-0.391,0.391 -0.391,1.02406 0,1.41406l7.29297,7.29297l-7.29297,7.29297c-0.391,0.391 -0.391,1.02406 0,1.41406l2,2c0.391,0.391 1.02406,0.391 1.41406,0l7.29297,-7.29297l7.29297,7.29297c0.39,0.391 1.02406,0.391 1.41406,0l2,-2c0.391,-0.391 0.391,-1.02406 0,-1.41406l-7.29297,-7.29297l7.29297,-7.29297c0.391,-0.39 0.391,-1.02406 0,-1.41406l-2,-2c-0.391,-0.391 -1.02406,-0.391 -1.41406,0l-7.29297,7.29297l-7.29297,-7.29297c-0.1955,-0.1955 -0.45116,-0.29297 -0.70703,-0.29297z"></path></g></g></g></svg>