<svg width="50" height="35" viewBox="0 0 50 35" fill="none" xmlns="http://www.w3.org/2000/svg">
<path d="M11.3563 14.0591C10.6162 14.0591 9.99091 13.3733 10.3503 12.7263C10.3741 12.6835 10.3955 12.6394 10.4144 12.5943C10.6941 11.9233 11.1157 11.3365 11.535 10.7454C11.8975 10.0845 12.5366 9.63707 13.0067 9.07154C13.4989 8.52191 14.1698 8.15624 14.7012 7.69973C15.2228 7.22278 15.906 6.9843 16.4496 6.64816C17.0177 6.34609 17.5123 6.01222 18.0412 5.85324L19.3611 5.34903C20.0208 5.09472 20.3819 4.38324 20.1977 3.70062L19.7244 1.94629C19.5062 1.13756 18.6897 0.644174 17.8723 0.827053C17.4046 0.936071 16.834 1.06326 16.1851 1.21543C15.5215 1.32899 14.8138 1.64015 14.0254 1.92405C13.2467 2.24656 12.3456 2.4646 11.5081 2.98243C10.6658 3.47755 9.69363 3.89091 8.83658 4.55411C8.00648 5.23774 7.00496 5.83053 6.26546 6.7004C5.45739 7.51349 4.65911 8.36747 4.03959 9.33955C3.32213 10.2662 2.83484 11.2837 2.32061 12.2898C1.85536 13.296 1.48071 14.3248 1.17462 15.3242C0.594281 17.3274 0.334719 19.2307 0.234323 20.8591C0.151067 22.4898 0.200041 23.8458 0.302886 24.8269C0.339617 25.2902 0.40818 25.7399 0.457154 26.0511L0.51304 26.3994C0.515939 26.4175 0.533388 26.4294 0.551283 26.4256C0.568347 26.422 0.585182 26.4327 0.589163 26.4497C1.02844 28.3248 2.02804 30.0476 3.47386 31.4206C4.92755 32.8012 6.77293 33.7718 8.79652 34.2202C10.8201 34.6687 12.9392 34.5765 14.9087 33.9545C16.8782 33.3325 18.6177 32.2061 19.9258 30.7055C21.2339 29.2048 22.0572 27.3914 22.3005 25.4749C22.5439 23.5584 22.1972 21.6171 21.3008 19.8757C20.4043 18.1343 18.9946 16.6639 17.2348 15.6345C15.4749 14.6052 13.4368 14.059 11.3563 14.0591ZM38.2919 14.0591C37.5518 14.0591 36.9265 13.3733 37.286 12.7263C37.3097 12.6835 37.3312 12.6394 37.35 12.5943C37.6298 11.9233 38.0514 11.3365 38.4707 10.7454C38.8331 10.0845 39.4722 9.63707 39.9423 9.07154C40.4345 8.52191 41.1055 8.15624 41.6368 7.69973C42.1584 7.22278 42.8416 6.9843 43.3852 6.64816C43.9533 6.34609 44.4479 6.01222 44.9769 5.85324L46.2967 5.34903C46.9564 5.09472 47.3175 4.38324 47.1333 3.70061L46.66 1.94629C46.4418 1.13756 45.6253 0.644174 44.8079 0.827053C44.3402 0.936071 43.7696 1.06326 43.1207 1.21543C42.4571 1.32899 41.7495 1.64015 40.961 1.92405C40.1848 2.24883 39.2812 2.4646 38.4437 2.9847C37.6014 3.47983 36.6293 3.89319 35.7722 4.55638C34.9421 5.24001 33.9406 5.8328 33.2011 6.7004C32.393 7.51349 31.5947 8.36747 30.9752 9.33955C30.2578 10.2662 29.7705 11.2837 29.2562 12.2898C28.791 13.296 28.4163 14.3248 28.1103 15.3242C27.5299 17.3274 27.2704 19.2307 27.17 20.8591C27.0867 22.4898 27.1357 23.8458 27.2385 24.8269C27.2752 25.2902 27.3438 25.7399 27.3928 26.0511L27.4487 26.3994C27.4516 26.4175 27.469 26.4294 27.4869 26.4256C27.504 26.422 27.5208 26.4327 27.5248 26.4497C27.9641 28.3248 28.9637 30.0476 30.4095 31.4206C31.8632 32.8012 33.7086 33.7718 35.7322 34.2202C37.7557 34.6687 39.8749 34.5765 41.8444 33.9545C43.8139 33.3325 45.5533 32.2061 46.8614 30.7055C48.1695 29.2048 48.9928 27.3914 49.2362 25.4749C49.4795 23.5584 49.1329 21.6171 48.2364 19.8757C47.3399 18.1343 45.9302 16.6639 44.1704 15.6345C42.4105 14.6052 40.3725 14.059 38.2919 14.0591Z" fill="#336FB1"/>
</svg>
