<svg width="50" height="35" viewBox="0 0 50 35" fill="none" xmlns="http://www.w3.org/2000/svg">
<path d="M38.0424 20.9409C38.7825 20.9409 39.4078 21.6267 39.0484 22.2737C39.0246 22.3165 39.0031 22.3606 38.9843 22.4057C38.7045 23.0767 38.2829 23.6635 37.8636 24.2546C37.5012 24.9155 36.8621 25.3629 36.392 25.9285C35.8998 26.4781 35.2288 26.8438 34.6975 27.3003C34.1759 27.7772 33.4927 28.0157 32.9491 28.3518C32.381 28.6539 31.8864 28.9878 31.3575 29.1468L30.0376 29.651C29.3779 29.9053 29.0168 30.6168 29.201 31.2994L29.6743 33.0537C29.8925 33.8624 30.709 34.3558 31.5264 34.1729C31.9941 34.0639 32.5647 33.9367 33.2136 33.7846C33.8772 33.671 34.5848 33.3599 35.3733 33.076C36.152 32.7534 37.0531 32.5354 37.8906 32.0176C38.7329 31.5224 39.7051 31.1091 40.5621 30.4459C41.3922 29.7623 42.3937 29.1695 43.1332 28.2996C43.9413 27.4865 44.7396 26.6325 45.3591 25.6605C46.0766 24.7338 46.5638 23.7163 47.0781 22.7102C47.5433 21.704 47.918 20.6752 48.2241 19.6758C48.8044 17.6726 49.064 15.7693 49.1644 14.1409C49.2476 12.5102 49.1986 11.1542 49.0958 10.1731C49.0591 9.70975 48.9905 9.26005 48.9415 8.9489L48.8856 8.60057C48.8827 8.5825 48.8653 8.57055 48.8474 8.57438C48.8303 8.57803 48.8135 8.56731 48.8095 8.55032C48.3702 6.6752 47.3706 4.95243 45.9248 3.57935C44.4711 2.1988 42.6258 1.22817 40.6022 0.779758C38.5786 0.331345 36.4594 0.42347 34.4899 1.04547C32.5204 1.66747 30.781 2.79394 29.4729 4.29455C28.1648 5.79517 27.3415 7.60861 27.0982 9.52511C26.8548 11.4416 27.2014 13.3829 28.0979 15.1243C28.9944 16.8657 30.4041 18.3361 32.1639 19.3655C33.9238 20.3948 35.9618 20.941 38.0424 20.9409ZM11.1068 20.9409C11.8469 20.9409 12.4721 21.6267 12.1127 22.2737C12.089 22.3165 12.0675 22.3606 12.0487 22.4057C11.7689 23.0767 11.3473 23.6635 10.928 24.2546C10.5656 24.9155 9.92649 25.3629 9.45634 25.9285C8.96415 26.4781 8.29321 26.8438 7.76185 27.3003C7.24028 27.7772 6.55709 28.0157 6.01348 28.3518C5.44538 28.6539 4.95074 28.9878 4.42183 29.1468L3.10198 29.651C2.44227 29.9053 2.08116 30.6168 2.26535 31.2994L2.73869 33.0537C2.95689 33.8624 3.77335 34.3558 4.59079 34.1729C5.05849 34.0639 5.62903 33.9367 6.27794 33.7846C6.94153 33.671 7.6492 33.3599 8.43768 33.076C9.21392 32.7512 10.1175 32.5354 10.9549 32.0153C11.7973 31.5202 12.7694 31.1068 13.6265 30.4436C14.4566 29.76 15.4581 29.1672 16.1976 28.2996C17.0057 27.4865 17.8039 26.6325 18.4235 25.6605C19.1409 24.7338 19.6282 23.7163 20.1424 22.7102C20.6077 21.704 20.9823 20.6752 21.2884 19.6758C21.8688 17.6726 22.1283 15.7693 22.2287 14.1409C22.312 12.5102 22.263 11.1542 22.1602 10.1731C22.1234 9.70975 22.0549 9.26005 22.0059 8.9489L21.95 8.60057C21.9471 8.5825 21.9297 8.57055 21.9118 8.57438C21.8947 8.57803 21.8779 8.56731 21.8739 8.55032C21.4346 6.6752 20.435 4.95243 18.9892 3.57935C17.5355 2.1988 15.6901 1.22817 13.6665 0.779758C11.6429 0.331345 9.52382 0.42347 7.55431 1.04547C5.5848 1.66747 3.84539 2.79394 2.5373 4.29455C1.22919 5.79517 0.405857 7.60861 0.162525 9.52511C-0.0808029 11.4416 0.26582 13.3829 1.16229 15.1243C2.05877 16.8657 3.46846 18.3361 5.2283 19.3655C6.98814 20.3948 9.02621 20.941 11.1068 20.9409Z" fill="#336FB1"/>
</svg>
