<svg width="26" height="19" viewBox="0 0 26 19" fill="none" xmlns="http://www.w3.org/2000/svg">
<path d="M13.0016 11.5416L21.0854 2.04971L21.0867 2.04822C21.5136 1.55092 22.1222 1.24175 22.7781 1.18471C23.4338 1.12768 24.0875 1.32697 24.5961 1.74171C25.105 2.15676 25.4276 2.75455 25.4892 3.40553C25.5509 4.05662 25.3461 4.70347 24.9226 5.20436L24.9226 5.20436L24.9214 5.20576L14.9197 16.9489L14.9192 16.9494C14.6835 17.2255 14.3894 17.4467 14.0582 17.5983C13.727 17.7498 13.3664 17.8281 13.0016 17.8281C12.6369 17.8281 12.2762 17.7498 11.945 17.5983C11.6138 17.4467 11.3197 17.2255 11.084 16.9494L11.0836 16.9489L1.08187 5.20576L1.08152 5.20534C0.656042 4.70469 0.449552 4.05707 0.510479 3.4048C0.571394 2.75264 0.894191 2.15357 1.40396 1.73783C1.91335 1.32239 2.56835 1.12316 3.22515 1.18112C3.88203 1.23908 4.49116 1.54996 4.9175 2.0492L4.91794 2.04972L13.0016 11.5416Z" fill="#004B9D" stroke="#004B9D"/>
</svg>
