<svg width="10" height="16" viewBox="0 0 10 16" fill="none" xmlns="http://www.w3.org/2000/svg">
<path d="M9.54557 2.38723V0.398438H8.35167H7.55615H5.96512H5.1696L4.37408 1.19396L3.57856 1.98947C3.44598 2.25465 3.1808 2.86454 3.1808 3.18275V3.97827V5.56931H0.328125V7.70925H2.90408V15.4275H6.3635V7.5581H9.14782V5.56931H6.3635V5.17155V4.77379V3.58051L7.15902 2.78499L7.95454 2.38723H9.54557Z" fill="#003087"/>
<path d="M8.20003 2.8304H9.80237V0.00172166H6.89046C6.64755 -0.00805152 3.68646 -0.0627811 2.91898 2.7672C2.90786 2.79685 2.66259 3.4699 2.66259 5.04207L0 5.04989V8.0167L2.66596 8.00921V15.8346H6.73818V8.01605H9.43345V5.04142H6.73818V4.10548C6.73818 3.52365 6.99187 2.8304 8.20003 2.8304ZM8.75963 5.69264V7.36418H6.06436V15.1827H3.33978V7.35571L0.673818 7.3632V5.69948L3.34685 5.69199L3.33978 5.36068C3.30474 3.69533 3.55035 2.99492 3.56147 2.96137C4.22383 0.523935 6.75301 0.646425 6.86149 0.652941L9.12855 0.653593V2.17919H8.20003C6.62565 2.17919 6.0647 3.17409 6.0647 4.10515V5.69264H8.75963Z" fill="#003087"/>
</svg>
