<svg width="81" height="80" viewBox="0 0 81 80" fill="none" xmlns="http://www.w3.org/2000/svg">
<path d="M40.3638 0C18.2724 0 0.36377 17.9086 0.36377 40C0.36377 62.0914 18.2724 80 40.3638 80C62.4552 80 80.3638 62.0914 80.3638 40C80.3638 17.9086 62.4552 0 40.3638 0ZM50.9247 23.9731C50.9247 23.9731 46.8319 23.6506 45.2196 24.2459C42.5546 25.2303 42.4911 27.5325 42.4911 29.7278V34.2113H50.6394L49.4488 42.7875H42.4911V63.9583H33.288V42.7875H25.6363V34.2113H33.2885V26.9375C33.2885 19.2356 39.2169 16.4452 42.7514 16.1103C46.286 15.7755 50.9247 16.78 50.9247 16.78V23.9731Z" fill="white"/>
</svg>
