<svg width="25" height="25" viewBox="0 0 25 25" fill="none" xmlns="http://www.w3.org/2000/svg">
<g clip-path="url(#clip0_1091_5632)">
<path d="M16.4996 0V1.04165H23.2222L15.0566 9.20712L15.7931 9.94366L23.9586 1.77819V8.50095H25.0003V0H16.4996Z" fill="#111111"/>
<path d="M1.77819 1.04165H8.50121V0H0V8.50095H1.04165V1.77819L9.20718 9.94366L9.94366 9.20712L1.77819 1.04165Z" fill="#111111"/>
<path d="M23.9586 16.4993V23.2221L15.7931 15.0566L15.0566 15.7931L23.2222 23.9586H16.4996V25.0003H25.0003V16.4993H23.9586Z" fill="#111111"/>
<path d="M9.94366 15.7931L9.20718 15.0566L1.04165 23.2221V16.4993H0V25.0003H8.50121V23.9586H1.77819L9.94366 15.7931Z" fill="#111111"/>
</g>
<defs>
<clipPath id="clip0_1091_5632">
<rect width="25" height="25" fill="white"/>
</clipPath>
</defs>
</svg>
