<svg width="39" height="39" viewBox="0 0 39 39" fill="none" xmlns="http://www.w3.org/2000/svg">
<path d="M8.55822 15.8674C10.0737 11.2753 14.3891 7.97727 19.5006 7.97727C22.2484 7.97727 24.7302 8.95227 26.6802 10.5477L32.3529 4.875C28.8961 1.86136 24.4643 0 19.5006 0C11.8145 0 5.19698 4.38473 2.01562 10.8063L8.55822 15.8674Z" fill="#EA4335"/>
<path d="M26.067 29.2707C24.2961 30.4142 22.0457 31.023 19.5008 31.023C14.4089 31.023 10.1069 27.7502 8.57594 23.1855L2.01172 28.1696C5.18913 34.6024 11.8065 39.0002 19.5008 39.0002C24.2667 39.0002 28.8208 37.306 32.2314 34.1246L26.067 29.2707Z" fill="#34A853"/>
<path d="M32.2306 34.1239C35.7974 30.7967 38.1136 25.843 38.1136 19.4996C38.1136 18.3473 37.9364 17.1064 37.6705 15.9541H19.5V23.4882H29.9591C29.443 26.0217 28.0577 27.984 26.0662 29.27L32.2306 34.1239Z" fill="#4A90E2"/>
<path d="M8.5751 23.1857C8.18728 22.0294 7.97727 20.7902 7.97727 19.5004C7.97727 18.2301 8.18096 17.0089 8.55758 15.8677L2.01498 10.8066C0.709454 13.4236 0 16.3729 0 19.5004C0 22.6196 0.722769 25.5619 2.01088 28.1697L8.5751 23.1857Z" fill="#FBBC05"/>
</svg>
