<svg width="54" height="23" viewBox="0 0 54 23" fill="none" xmlns="http://www.w3.org/2000/svg">
<g clip-path="url(#clip0_1091_5019)">
<path d="M25.54 10.803V17.2498H23.5449V1.32533H28.8334C30.1092 1.29748 31.3419 1.79411 32.258 2.70381C33.1854 3.56014 33.708 4.78546 33.6876 6.06415C33.7147 7.35212 33.1922 8.58672 32.258 9.44537C31.3329 10.3504 30.1906 10.803 28.8334 10.8006L25.54 10.803ZM25.54 3.2863V8.84664H28.8832C29.6251 8.86984 30.3399 8.57048 30.8556 8.0228C31.9029 6.97849 31.9278 5.25887 30.9076 4.1844C30.8895 4.16584 30.8737 4.14727 30.8556 4.13103C30.3467 3.57174 29.6274 3.26541 28.8832 3.2863H25.54ZM38.2839 5.99917C39.7587 5.99917 40.9214 6.40297 41.7741 7.21056C42.6269 8.01816 43.0521 9.12744 43.0521 10.5338V17.2498H41.1453V15.7367H41.0593C40.2337 16.9829 39.1344 17.6049 37.7637 17.6049C36.5942 17.6049 35.6148 17.2498 34.8276 16.5374C34.0631 15.876 33.6288 14.8966 33.6469 13.8686C33.6469 12.7407 34.0631 11.8449 34.8932 11.1789C35.7234 10.5129 36.8317 10.1787 38.2206 10.1787C39.4036 10.1787 40.3808 10.4015 41.1453 10.8447V10.376C41.1498 9.67512 40.8467 9.0114 40.3219 8.56583C39.7949 8.07849 39.1073 7.81162 38.397 7.8209C37.2841 7.8209 36.402 8.3036 35.7528 9.26668L33.9975 8.13187C34.9611 6.7093 36.3906 5.99917 38.2839 5.99917ZM35.703 13.915C35.7007 14.4441 35.9473 14.9407 36.3635 15.2494C36.8046 15.6044 37.352 15.7947 37.913 15.7831C38.7544 15.7808 39.5619 15.4374 40.1568 14.827C40.8173 14.1888 41.1476 13.4416 41.1476 12.5806C40.5255 12.0724 39.6592 11.8171 38.5463 11.8171C37.7365 11.8171 37.0602 12.0167 36.5196 12.4182C35.9744 12.8266 35.703 13.3209 35.703 13.915ZM54.0001 6.35423L47.3431 22.0536H45.2847L47.7548 16.5606L43.3756 6.35423H45.5426L48.7071 14.1819H48.75L51.8286 6.35423H54.0001Z" fill="#5F6368"/>
<path d="M17.4798 9.4105C17.4798 8.78624 17.4301 8.1643 17.326 7.54932H8.91602V11.0721H13.7317C13.5327 12.2092 12.8903 13.2141 11.9516 13.8523V16.1405H14.8265C16.5094 14.5508 17.4798 12.1953 17.4798 9.4105Z" fill="#4285F4"/>
<path d="M8.91587 18.3524C11.3226 18.3524 13.3493 17.5425 14.8264 16.1431L11.9514 13.8549C11.1507 14.4119 10.1215 14.7298 8.91587 14.7298C6.59057 14.7298 4.61587 13.1216 3.91014 10.9541H0.949219V13.3119C2.46248 16.403 5.54554 18.3524 8.91587 18.3524Z" fill="#34A853"/>
<path d="M3.91094 10.9539C3.53772 9.81914 3.53772 8.58686 3.91094 7.45205V5.09424H0.950027C-0.316676 7.67947 -0.316676 10.7265 0.950027 13.3118L3.91094 10.9539Z" fill="#FBBC04"/>
<path d="M8.91587 3.67635C10.1871 3.65547 11.4153 4.14745 12.336 5.04787L14.8829 2.43711C13.2679 0.88226 11.1303 0.0282515 8.91587 0.0537789C5.54554 0.0537789 2.46248 2.00547 0.949219 5.09429L3.91014 7.45209C4.61587 5.28458 6.59057 3.67635 8.91587 3.67635Z" fill="#EA4335"/>
</g>
<defs>
<clipPath id="clip0_1091_5019">
<rect width="54" height="22" fill="white" transform="translate(0 0.0537109)"/>
</clipPath>
</defs>
</svg>
