<svg width="24" height="24" viewBox="0 0 24 24" fill="none" xmlns="http://www.w3.org/2000/svg">
<g clip-path="url(#clip0_2166_30)">
<path d="M1.32954 17.3829C1.23947 17.2379 1.17312 17.081 1.10217 16.9268C0.685533 16.0229 0.384621 15.0718 0.206302 14.0954C0.11811 13.6172 0.0612844 13.1341 0.0361753 12.6488C0.031772 12.5591 0.0349744 12.4668 0.00114919 12.3802V11.8306C0.00114919 11.8012 -0.0022531 11.7717 0.00265055 11.7423C0.04208 11.5096 0.0364755 11.2737 0.0564905 11.0396C0.0892149 10.653 0.137951 10.268 0.208004 9.88579C0.362358 9.04408 0.608106 8.22098 0.94105 7.43055C1.05794 7.15322 1.17883 6.87756 1.32474 6.61328C1.81597 6.98737 2.30727 7.36143 2.79864 7.73545C3.32956 8.13938 3.86039 8.54317 4.39112 8.94683C4.68568 9.17038 4.9808 9.39325 5.27648 9.61543C5.20453 9.86646 5.12727 10.1159 5.07083 10.3711C4.97845 10.7857 4.91986 11.2069 4.8956 11.6306C4.84556 12.535 4.97896 13.414 5.26037 14.274C5.27158 14.3081 5.28039 14.3427 5.29039 14.3775C5.27408 14.3889 5.25737 14.3998 5.24166 14.4118C4.4538 15.0098 3.66605 15.6079 2.8784 16.2061C2.36188 16.5982 1.84559 16.9905 1.32954 17.3829Z" fill="#F3694B"/>
<path d="M1.32422 6.61322C1.47603 6.29664 1.65326 5.99379 1.8419 5.69752C3.11652 3.69478 4.83777 2.1801 7.00565 1.15348C7.92737 0.719644 8.90255 0.40482 9.90682 0.216878C10.4298 0.118072 10.9587 0.051992 11.4903 0.0190382C11.85 -0.00333657 12.2095 0.00255162 12.5693 0.00225721C12.6058 0.00225721 12.6424 0.00078508 12.6794 0C12.9056 0.0105986 13.1316 0.0226692 13.3574 0.0411186C13.8252 0.0795636 14.2903 0.144275 14.7505 0.234935C15.7926 0.438654 16.801 0.782772 17.7469 1.2575C18.7138 1.74229 19.5917 2.3522 20.3913 3.07222C20.4036 3.0833 20.418 3.09184 20.4428 3.11029L16.9929 6.41352C16.9508 6.39968 16.9281 6.37014 16.9011 6.34629C16.0138 5.56121 14.9862 5.04414 13.8182 4.79507C13.2189 4.66526 12.6049 4.61274 11.9917 4.63884C10.228 4.71473 8.68851 5.33148 7.37333 6.48908C6.41962 7.32843 5.73711 8.34913 5.30929 9.53362C5.29928 9.5612 5.28727 9.58809 5.27617 9.61537C4.98095 9.39247 4.68569 9.16961 4.3904 8.94677C3.85934 8.54344 3.32858 8.13965 2.79812 7.73539C2.30675 7.36144 1.81545 6.98738 1.32422 6.61322Z" fill="#F3694B"/>
<path d="M1.33008 17.3825C1.84626 16.99 2.36248 16.5977 2.87873 16.2057C3.66632 15.6075 4.45418 15.0093 5.2423 14.4112C5.25801 14.3992 5.27472 14.3883 5.29103 14.377C5.3868 14.6274 5.48228 14.8774 5.59516 15.1219C6.53846 17.161 8.41356 18.6733 10.6359 19.1788C11.3014 19.3301 11.9769 19.3819 12.6597 19.3491C13.2302 19.3217 13.793 19.2499 14.3469 19.1115C15.0957 18.9241 15.7935 18.6251 16.4343 18.2003C16.4562 18.1858 16.48 18.1741 16.5029 18.161C16.9112 18.4705 17.3195 18.7799 17.7277 19.0892C18.3432 19.5572 18.9585 20.0256 19.5735 20.4944L20.3541 21.0889C20.0865 21.3448 19.7963 21.5746 19.497 21.7931C18.2752 22.6854 16.9151 23.2867 15.4382 23.638C14.8359 23.7797 14.2242 23.8793 13.6075 23.9361C12.9606 23.998 12.3099 24.0141 11.6606 23.9842C10.1551 23.9139 8.70748 23.5887 7.33085 22.9847C4.81077 21.879 2.87823 20.1423 1.53323 17.7745C1.46028 17.6469 1.38372 17.5202 1.33008 17.3825Z" fill="#F3694B"/>
<path d="M20.3535 21.0886L19.5729 20.4941C18.9577 20.0257 18.3424 19.5573 17.7272 19.0889C17.3194 18.7788 16.9111 18.4695 16.5024 18.1607C16.6632 18.0342 16.8307 17.9161 16.9866 17.7833C17.522 17.3288 17.9735 16.7872 18.3212 16.1822C18.598 15.7014 18.8068 15.1945 18.9283 14.6546C18.9534 14.5431 18.9692 14.4296 18.9913 14.3176C18.9989 14.2783 18.9869 14.2622 18.9467 14.2638C18.9201 14.2649 18.8933 14.2638 18.8666 14.2638C16.707 14.2638 14.5474 14.2638 12.3878 14.2638C12.2377 14.2638 12.2567 14.2828 12.2566 14.1326C12.2561 12.7336 12.2561 11.3347 12.2566 9.93585C12.2566 9.79296 12.2427 9.81131 12.3854 9.81131C16.1312 9.81131 19.8772 9.81131 23.6232 9.81131C23.6432 9.8123 23.6632 9.8123 23.6832 9.81131C23.7284 9.8067 23.7483 9.82672 23.7578 9.87019C23.8245 10.1734 23.8797 10.4786 23.9194 10.7863C24.0016 11.4235 24.0086 12.0637 23.9947 12.7041C23.9858 13.1155 23.9522 13.5257 23.9041 13.9349C23.8421 14.4668 23.7472 14.9944 23.62 15.5149C23.2844 16.8811 22.7305 18.1538 21.9213 19.3165C21.4827 19.9456 20.9754 20.526 20.4084 21.0473C20.3912 21.0618 20.3717 21.0746 20.3535 21.0886Z" fill="#F3694B"/>
</g>
<defs>
<clipPath id="clip0_2166_30">
<rect width="24" height="24" rx="12" fill="white"/>
</clipPath>
</defs>
</svg>
