<svg width="17" height="16" viewBox="0 0 17 16" fill="none" xmlns="http://www.w3.org/2000/svg">
<g clip-path="url(#clip0_1091_2696)">
<path d="M4.56766 15.8541C3.62146 15.8111 3.10746 15.6536 2.76558 15.5203C2.31258 15.3439 1.98962 15.1339 1.64963 14.7944C1.30964 14.4549 1.09922 14.1319 0.923787 13.6789C0.79044 13.3371 0.632977 12.8231 0.589946 11.8769C0.54266 10.8541 0.533203 10.5472 0.533203 7.95589C0.533203 5.36461 0.543606 5.0582 0.589474 4.03445C0.632504 3.08826 0.790913 2.5752 0.923314 2.23238C1.09969 1.77938 1.31011 1.45641 1.64916 1.11595C1.98867 0.776438 2.31163 0.565542 2.76511 0.390111C3.10699 0.256764 3.62099 0.0993009 4.56718 0.0562705C5.59045 0.00945722 5.89781 0 8.48815 0C11.0794 0 11.3858 0.0104029 12.4096 0.0562705C13.3558 0.0993009 13.8688 0.257709 14.2117 0.390111C14.6647 0.565542 14.9876 0.776438 15.3276 1.11595C15.6676 1.45547 15.8771 1.7789 16.0535 2.2319C16.1868 2.57378 16.3443 3.08778 16.3873 4.03398C16.4341 5.05772 16.4436 5.36414 16.4436 7.95542C16.4436 10.5458 16.4341 10.8531 16.3873 11.8769C16.3443 12.8231 16.1859 13.3371 16.0535 13.6789C15.8771 14.1319 15.6671 14.4549 15.3276 14.7944C14.9881 15.1339 14.6647 15.3439 14.2117 15.5203C13.8698 15.6536 13.3558 15.8111 12.4096 15.8541C11.3868 15.9009 11.0794 15.9104 8.48815 15.9104C5.89781 15.9104 5.59045 15.9014 4.56766 15.8541Z" fill="url(#paint0_radial_1091_2696)"/>
<path d="M4.56766 15.8541C3.62146 15.8111 3.10746 15.6536 2.76558 15.5203C2.31258 15.3439 1.98962 15.1339 1.64963 14.7944C1.30964 14.4549 1.09922 14.1319 0.923787 13.6789C0.79044 13.3371 0.632977 12.8231 0.589946 11.8769C0.54266 10.8541 0.533203 10.5472 0.533203 7.95589C0.533203 5.36461 0.543606 5.0582 0.589474 4.03445C0.632504 3.08826 0.790913 2.5752 0.923314 2.23238C1.09969 1.77938 1.31011 1.45641 1.64916 1.11595C1.98867 0.776438 2.31163 0.565542 2.76511 0.390111C3.10699 0.256764 3.62099 0.0993009 4.56718 0.0562705C5.59045 0.00945722 5.89781 0 8.48815 0C11.0794 0 11.3858 0.0104029 12.4096 0.0562705C13.3558 0.0993009 13.8688 0.257709 14.2117 0.390111C14.6647 0.565542 14.9876 0.776438 15.3276 1.11595C15.6676 1.45547 15.8771 1.7789 16.0535 2.2319C16.1868 2.57378 16.3443 3.08778 16.3873 4.03398C16.4341 5.05772 16.4436 5.36414 16.4436 7.95542C16.4436 10.5458 16.4341 10.8531 16.3873 11.8769C16.3443 12.8231 16.1859 13.3371 16.0535 13.6789C15.8771 14.1319 15.6671 14.4549 15.3276 14.7944C14.9881 15.1339 14.6647 15.3439 14.2117 15.5203C13.8698 15.6536 13.3558 15.8111 12.4096 15.8541C11.3868 15.9009 11.0794 15.9104 8.48815 15.9104C5.89781 15.9104 5.59045 15.9014 4.56766 15.8541Z" fill="url(#paint1_radial_1091_2696)"/>
<path d="M6.53457 7.98889C6.53457 6.90079 7.41641 6.01848 8.50451 6.01848C9.59261 6.01848 10.4749 6.90079 10.4749 7.98889C10.4749 9.07699 9.59261 9.95931 8.50451 9.95931C7.41641 9.95931 6.53457 9.07699 6.53457 7.98889ZM5.46941 7.98889C5.46941 9.66519 6.82822 11.024 8.50451 11.024C10.1808 11.024 11.5396 9.66519 11.5396 7.98889C11.5396 6.3126 10.1808 4.95378 8.50451 4.95378C6.82822 4.95378 5.46945 6.3125 5.46945 7.98889H5.46941ZM10.9505 4.83344C10.9505 4.97373 10.992 5.11088 11.0699 5.22755C11.1478 5.34422 11.2585 5.43518 11.3881 5.48892C11.5177 5.54265 11.6603 5.55676 11.7979 5.52944C11.9355 5.50213 12.0619 5.43463 12.1612 5.33547C12.2604 5.23631 12.328 5.10996 12.3554 4.97238C12.3829 4.8348 12.3689 4.69218 12.3152 4.56255C12.2616 4.43292 12.1707 4.32211 12.0541 4.24413C11.9375 4.16614 11.8004 4.12449 11.6601 4.12443H11.6598C11.4718 4.12452 11.2915 4.19924 11.1585 4.33218C11.0255 4.46511 10.9507 4.6454 10.9505 4.83344ZM6.11656 12.8002C5.54029 12.7739 5.22707 12.6779 5.01891 12.5968C4.74295 12.4894 4.54605 12.3614 4.33903 12.1547C4.13201 11.948 4.00387 11.7513 3.89691 11.4753C3.81576 11.2672 3.71977 10.9539 3.69358 10.3776C3.66492 9.7546 3.6592 9.56745 3.6592 7.98899C3.6592 6.41053 3.6654 6.22389 3.69358 5.60033C3.71982 5.02405 3.81652 4.71135 3.89691 4.50267C4.00434 4.22671 4.1323 4.02981 4.33903 3.82279C4.54577 3.61578 4.74248 3.48763 5.01891 3.38067C5.22697 3.29953 5.54029 3.20354 6.11656 3.17734C6.73961 3.14868 6.92676 3.14296 8.50451 3.14296C10.0823 3.14296 10.2696 3.14906 10.8932 3.17743C11.4694 3.20368 11.7821 3.30038 11.9908 3.38076C12.2668 3.48772 12.4637 3.61615 12.6707 3.82289C12.8777 4.02962 13.0054 4.22681 13.1128 4.50277C13.194 4.71083 13.29 5.02415 13.3162 5.60042C13.3448 6.22398 13.3505 6.41062 13.3505 7.98908C13.3505 9.56754 13.3448 9.75418 13.3162 10.3777C13.2899 10.954 13.1934 11.2672 13.1128 11.4754C13.0054 11.7514 12.8774 11.9483 12.6707 12.1548C12.464 12.3613 12.2668 12.4895 11.9908 12.5969C11.7828 12.6781 11.4694 12.7741 10.8932 12.8003C10.2701 12.8289 10.083 12.8346 8.50451 12.8346C6.92606 12.8346 6.73942 12.8289 6.11656 12.8003V12.8002ZM6.06762 2.11392C5.43839 2.14258 5.00842 2.24235 4.63292 2.38846C4.24427 2.53935 3.91483 2.74179 3.58586 3.07024C3.25689 3.39869 3.05498 3.72817 2.90409 4.11729C2.75797 4.49303 2.6582 4.92276 2.62955 5.552C2.60042 6.18223 2.59375 6.38372 2.59375 7.98889C2.59375 9.59407 2.60042 9.79555 2.62955 10.4258C2.6582 11.0551 2.75797 11.4848 2.90409 11.8605C3.05498 12.2491 3.25694 12.5792 3.58586 12.9075C3.91478 13.2359 4.2438 13.438 4.63292 13.5893C5.00912 13.7354 5.43839 13.8352 6.06762 13.8639C6.69818 13.8925 6.89934 13.8997 8.50451 13.8997C10.1097 13.8997 10.3112 13.893 10.9414 13.8639C11.5707 13.8352 12.0004 13.7354 12.3761 13.5893C12.7648 13.438 13.0942 13.236 13.4232 12.9075C13.7521 12.5791 13.9536 12.2491 14.1049 11.8605C14.2511 11.4848 14.3513 11.055 14.3795 10.4258C14.4081 9.79508 14.4148 9.59407 14.4148 7.98889C14.4148 6.38372 14.4081 6.18223 14.3795 5.552C14.3508 4.92272 14.2511 4.49279 14.1049 4.11729C13.9536 3.72865 13.7516 3.39921 13.4232 3.07024C13.0947 2.74127 12.7648 2.53935 12.3766 2.38846C12.0004 2.24235 11.5706 2.1421 10.9419 2.11392C10.3116 2.08512 10.1102 2.07812 8.50522 2.07812C6.90028 2.07812 6.69842 2.08479 6.06786 2.11392" fill="white"/>
</g>
<defs>
<radialGradient id="paint0_radial_1091_2696" cx="0" cy="0" r="1" gradientUnits="userSpaceOnUse" gradientTransform="translate(1.56291 15.5618) scale(20.2003)">
<stop offset="0.09" stop-color="#FA8F21"/>
<stop offset="0.78" stop-color="#D82D7E"/>
</radialGradient>
<radialGradient id="paint1_radial_1091_2696" cx="0" cy="0" r="1" gradientUnits="userSpaceOnUse" gradientTransform="translate(11.5538 15.0509) scale(17.7764)">
<stop offset="0.64" stop-color="#8C3AAA" stop-opacity="0"/>
<stop offset="1" stop-color="#8C3AAA"/>
</radialGradient>
<clipPath id="clip0_1091_2696">
<rect width="15.9104" height="15.9104" fill="white" transform="translate(0.533203)"/>
</clipPath>
</defs>
</svg>
