<svg xmlns="http://www.w3.org/2000/svg" xmlns:xlink="http://www.w3.org/1999/xlink" viewBox="0,0,256,256" width="100px" height="100px" fill-rule="nonzero"><g transform="translate(56.32,56.32) scale(0.56,0.56)"><g fill="#ffffff" fill-rule="nonzero" stroke="none" stroke-width="1" stroke-linecap="butt" stroke-linejoin="miter" stroke-miterlimit="10" stroke-dasharray="" stroke-dashoffset="0" font-family="none" font-weight="none" font-size="none" text-anchor="none" style="mix-blend-mode: normal"><path d="M128,356.57143c-126.23651,0 -228.57143,-102.33491 -228.57143,-228.57143v0c0,-126.23651 102.33491,-228.57143 228.57143,-228.57143v0c126.23651,0 228.57143,102.33491 228.57143,228.57143v0c0,126.23651 -102.33491,228.57143 -228.57143,228.57143z" id="shape"></path></g><g fill="#ffffff" fill-rule="nonzero" stroke="#ffffff" stroke-width="66.56" stroke-linecap="butt" stroke-linejoin="round" stroke-miterlimit="10" stroke-dasharray="" stroke-dashoffset="0" font-family="none" font-weight="none" font-size="none" text-anchor="none" style="mix-blend-mode: normal"><path d="M174.08,15.36c36.69768,0 66.56,29.86232 66.56,66.56v92.16c0,36.69768 -29.86232,66.56 -66.56,66.56h-92.16c-36.69768,0 -66.56,-29.86232 -66.56,-66.56v-92.16c0,-36.69768 29.86232,-66.56 66.56,-66.56z" id="strokeMainSVG"></path></g><g fill="#0b4483" fill-rule="nonzero" stroke="none" stroke-width="1" stroke-linecap="butt" stroke-linejoin="miter" stroke-miterlimit="10" stroke-dasharray="" stroke-dashoffset="0" font-family="none" font-weight="none" font-size="none" text-anchor="none" style="mix-blend-mode: normal"><g transform="scale(5.12,5.12)"><path d="M16,3c-7.16752,0 -13,5.83248 -13,13v18c0,7.16752 5.83248,13 13,13h18c7.16752,0 13,-5.83248 13,-13v-18c0,-7.16752 -5.83248,-13 -13,-13zM16,5h18c6.08648,0 11,4.91352 11,11v18c0,6.08648 -4.91352,11 -11,11h-18c-6.08648,0 -11,-4.91352 -11,-11v-18c0,-6.08648 4.91352,-11 11,-11zM37,11c-1.10457,0 -2,0.89543 -2,2c0,1.10457 0.89543,2 2,2c1.10457,0 2,-0.89543 2,-2c0,-1.10457 -0.89543,-2 -2,-2zM25,14c-6.06329,0 -11,4.93671 -11,11c0,6.06329 4.93671,11 11,11c6.06329,0 11,-4.93671 11,-11c0,-6.06329 -4.93671,-11 -11,-11zM25,16c4.98241,0 9,4.01759 9,9c0,4.98241 -4.01759,9 -9,9c-4.98241,0 -9,-4.01759 -9,-9c0,-4.98241 4.01759,-9 9,-9z"></path></g></g></g></svg>