<svg width="20" height="20" viewBox="0 0 20 20" fill="none" xmlns="http://www.w3.org/2000/svg">
<path d="M16.4432 4.93864C16.4432 5.70147 15.8248 6.31987 15.0619 6.31987C14.2991 6.31987 13.6807 5.70147 13.6807 4.93864C13.6807 4.1758 14.2991 3.5574 15.0619 3.5574C15.8248 3.5574 16.4432 4.1758 16.4432 4.93864Z" fill="#244D4D"/>
<path fill-rule="evenodd" clip-rule="evenodd" d="M9.99738 14.6073C12.5402 14.6073 14.6015 12.546 14.6015 10.0032C14.6015 7.46039 12.5402 5.39905 9.99738 5.39905C7.45457 5.39905 5.39322 7.46039 5.39322 10.0032C5.39322 12.546 7.45457 14.6073 9.99738 14.6073ZM9.99738 12.7656C11.5231 12.7656 12.7599 11.5288 12.7599 10.0032C12.7599 8.4775 11.5231 7.2407 9.99738 7.2407C8.47169 7.2407 7.23488 8.4775 7.23488 10.0032C7.23488 11.5288 8.47169 12.7656 9.99738 12.7656Z" fill="#244D4D"/>
<path fill-rule="evenodd" clip-rule="evenodd" d="M0.789062 9.63484C0.789062 6.54058 0.789062 4.99345 1.39125 3.8116C1.92095 2.77201 2.76617 1.9268 3.80576 1.39711C4.98762 0.794922 6.53476 0.794922 9.62904 0.794922H10.3657C13.46 0.794922 15.0071 0.794922 16.189 1.39711C17.2286 1.9268 18.0738 2.77201 18.6035 3.8116C19.2057 4.99345 19.2057 6.54058 19.2057 9.63484V10.3715C19.2057 13.4658 19.2057 15.0129 18.6035 16.1948C18.0738 17.2343 17.2286 18.0795 16.189 18.6092C15.0071 19.2114 13.46 19.2114 10.3657 19.2114H9.62904C6.53476 19.2114 4.98762 19.2114 3.80576 18.6092C2.76617 18.0795 1.92095 17.2343 1.39125 16.1948C0.789062 15.0129 0.789062 13.4658 0.789062 10.3715V9.63484ZM9.62904 2.63657H10.3657C11.9432 2.63657 13.0156 2.638 13.8445 2.70573C14.652 2.7717 15.0649 2.89127 15.3529 3.03803C16.046 3.39116 16.6094 3.95463 16.9626 4.64769C17.1093 4.93572 17.2289 5.34863 17.2949 6.15604C17.3626 6.98494 17.364 8.05732 17.364 9.63484V10.3715C17.364 11.949 17.3626 13.0214 17.2949 13.8503C17.2289 14.6577 17.1093 15.0706 16.9626 15.3587C16.6094 16.0517 16.046 16.6152 15.3529 16.9683C15.0649 17.1151 14.652 17.2346 13.8445 17.3006C13.0156 17.3683 11.9432 17.3698 10.3657 17.3698H9.62904C8.05151 17.3698 6.97912 17.3683 6.15021 17.3006C5.3428 17.2346 4.92989 17.1151 4.64186 16.9683C3.94879 16.6152 3.38532 16.0517 3.03218 15.3587C2.88542 15.0706 2.76585 14.6577 2.69988 13.8503C2.63216 13.0214 2.63073 11.949 2.63073 10.3715V9.63484C2.63073 8.05732 2.63216 6.98494 2.69988 6.15604C2.76585 5.34863 2.88542 4.93572 3.03218 4.64769C3.38532 3.95463 3.94879 3.39116 4.64186 3.03803C4.92989 2.89127 5.3428 2.7717 6.15021 2.70573C6.97912 2.638 8.05151 2.63657 9.62904 2.63657Z" fill="#244D4D"/>
</svg>
