<svg width="557" height="165" viewBox="0 0 557 165" fill="none" xmlns="http://www.w3.org/2000/svg">
<path d="M44.1646 116.408L62.1004 41.25H38.5983L40.5775 47.6745C40.9192 48.485 41.4124 49.1445 42.0021 49.5796C42.5918 50.0147 43.2548 50.2082 43.9172 50.1387H50.9678C51.1539 50.0974 51.3443 50.124 51.5212 50.216C51.6981 50.3079 51.8558 50.4622 51.9794 50.6645C52.1029 50.8667 52.1884 51.1102 52.2278 51.3723C52.2673 51.6343 52.2593 51.9064 52.2048 52.1629L34.269 127.497H57.1526C57.8099 127.605 58.4748 127.427 59.0599 126.987C59.6449 126.547 60.1227 125.866 60.4305 125.032L62.4096 118.784H45.2779C44.412 118.784 43.8554 117.904 44.1646 116.408Z" fill="white"/>
<path d="M117.516 111.667C117.516 112.927 117.164 114.136 116.538 115.027C115.911 115.918 115.062 116.419 114.176 116.419H113.248C112.818 116.408 112.393 116.276 111.999 116.031C111.604 115.786 111.247 115.432 110.948 114.991C110.65 114.55 110.415 114.029 110.258 113.459C110.101 112.888 110.024 112.279 110.032 111.667V37.125H105.641C105.174 37.1434 104.727 37.4039 104.386 37.8577C104.044 38.3115 103.831 38.9272 103.786 39.5892V113.339C103.793 114.76 104.001 116.165 104.396 117.47C104.791 118.775 105.366 119.954 106.086 120.939C106.807 121.923 107.658 122.692 108.591 123.2C109.524 123.709 110.518 123.947 111.517 123.9H116.279C118.236 123.9 120.115 122.799 121.505 120.838C122.895 118.876 123.684 116.213 123.701 113.427V37.125H117.516V111.667Z" fill="white"/>
<path d="M186.352 44.3387L179.487 93.9746L172.312 44.4267C172.194 43.5106 171.847 42.686 171.336 42.1041C170.825 41.5221 170.183 41.2219 169.529 41.2585H165.695V127.505H171.88V83.5018L175.529 106.031C175.529 107.88 176.518 113.072 180.167 113.072H182.084L186.785 83.5018V127.505H192.97V41.2585H189.197C188.541 41.1966 187.892 41.4745 187.369 42.0406C186.846 42.6068 186.485 43.4231 186.352 44.3387Z" fill="white"/>
<path d="M245.107 41.25H241.767L232.552 127.497H239.417L244.859 68.0921L250.302 127.497H257.167L248.447 45.9144C248.137 43.5382 247.704 41.25 245.107 41.25Z" fill="white"/>
<path d="M319.88 78.4769V52.0748C319.88 49.2039 319.078 46.4506 317.652 44.4205C316.225 42.3904 314.29 41.25 312.273 41.25H300.955V127.497H307.139V90.1818H310.726C312.335 90.1818 313.881 91.5019 313.881 95.7262V127.233H320.065V94.2301C320.065 94.2301 320.065 87.8056 317.839 86.0455C320.189 85.2534 319.88 78.4769 319.88 78.4769ZM313.695 76.8047C313.695 80.765 312.149 81.7331 310.541 81.7331H307.201V48.9066H310.726C311.145 48.8544 311.566 48.9317 311.961 49.1331C312.356 49.3345 312.716 49.6553 313.016 50.0734C313.315 50.4916 313.548 50.9971 313.697 51.5553C313.846 52.1134 313.909 52.711 313.881 53.3069L313.695 76.8047Z" fill="white"/>
<path d="M443.698 41.25H431.638V127.497H443.698C445.722 127.497 447.663 126.359 449.1 124.332C450.536 122.304 451.351 119.551 451.368 116.672V52.0749C451.351 49.1959 450.536 46.4427 449.1 44.4151C447.663 42.3876 445.722 41.2499 443.698 41.25ZM445.245 114.208C445.284 114.83 445.225 115.457 445.074 116.044C444.922 116.631 444.68 117.162 444.367 117.6C444.053 118.038 443.675 118.371 443.26 118.576C442.845 118.78 442.403 118.852 441.967 118.784H437.885V50.1387H441.967C442.394 50.0587 442.829 50.1152 443.24 50.3042C443.65 50.4931 444.026 50.8097 444.34 51.231C444.654 51.6523 444.898 52.1678 445.054 52.74C445.211 53.3121 445.276 53.9267 445.245 54.539V114.208Z" fill="white"/>
<path d="M391.128 41.25H360.205C359.385 41.25 358.598 41.7136 358.018 42.5388C357.438 43.3641 357.112 44.4833 357.112 45.6503C357.112 46.8174 357.438 47.9366 358.018 48.7619C358.598 49.5871 359.385 50.0507 360.205 50.0507H391.128C391.949 50.0507 392.735 49.5871 393.315 48.7619C393.895 47.9366 394.221 46.8174 394.221 45.6503C394.221 44.4833 393.895 43.3641 393.315 42.5388C392.735 41.7136 391.949 41.25 391.128 41.25Z" fill="white"/>
<path d="M389.706 56.3874C389.706 55.2671 389.393 54.1926 388.836 53.4003C388.279 52.6081 387.524 52.1631 386.737 52.1631H365.214C364.427 52.1631 363.672 52.6081 363.115 53.4003C362.558 54.1926 362.245 55.2671 362.245 56.3874C362.237 56.9455 362.308 57.5001 362.454 58.0181C362.6 58.536 362.819 59.0065 363.096 59.4012C363.373 59.7959 363.704 60.1066 364.068 60.3146C364.432 60.5227 364.822 60.6237 365.214 60.6117H386.737C387.129 60.6237 387.519 60.5227 387.883 60.3146C388.247 60.1066 388.577 59.7959 388.855 59.4012C389.132 59.0065 389.351 58.536 389.497 58.0181C389.643 57.5001 389.714 56.9455 389.706 56.3874Z" fill="white"/>
<path d="M381.852 63.1639H370.039C369.252 63.1639 368.497 63.609 367.94 64.4012C367.383 65.1934 367.07 66.2679 367.07 67.3882C367.086 68.5016 367.404 69.563 367.957 70.3504C368.511 71.1378 369.257 71.5901 370.039 71.6126H381.852C382.639 71.6126 383.394 71.1675 383.951 70.3753C384.508 69.5831 384.82 68.5086 384.82 67.3882C384.829 66.8302 384.758 66.2755 384.612 65.7576C384.466 65.2396 384.247 64.7691 383.97 64.3745C383.692 63.9798 383.362 63.669 382.998 63.461C382.634 63.253 382.244 63.1519 381.852 63.1639Z" fill="white"/>
<path d="M374.429 82.6133H377.521C378.304 82.5908 379.049 82.1385 379.603 81.3511C380.156 80.5637 380.474 79.5023 380.49 78.389C380.49 77.2686 380.177 76.1941 379.62 75.4019C379.064 74.6097 378.309 74.1647 377.521 74.1647H374.429C374.037 74.1526 373.647 74.2537 373.283 74.4617C372.919 74.6698 372.588 74.9805 372.311 75.3752C372.033 75.7699 371.815 76.2403 371.669 76.7583C371.523 77.2762 371.452 77.8309 371.46 78.389C371.46 79.5093 371.773 80.5838 372.33 81.376C372.886 82.1682 373.641 82.6133 374.429 82.6133Z" fill="white"/>
<path d="M391.128 118.08H360.205C359.385 118.08 358.598 118.544 358.018 119.369C357.438 120.194 357.112 121.313 357.112 122.48C357.112 123.647 357.438 124.767 358.018 125.592C358.598 126.417 359.385 126.881 360.205 126.881H391.128C391.949 126.881 392.735 126.417 393.315 125.592C393.895 124.767 394.221 123.647 394.221 122.48C394.221 121.313 393.895 120.194 393.315 119.369C392.735 118.544 391.949 118.08 391.128 118.08Z" fill="white"/>
<path d="M365.214 115.528H386.737C387.524 115.528 388.279 115.083 388.836 114.29C389.393 113.498 389.706 112.424 389.706 111.303C389.714 110.745 389.643 110.191 389.497 109.673C389.351 109.155 389.132 108.684 388.855 108.29C388.577 107.895 388.247 107.584 387.883 107.376C387.519 107.168 387.129 107.067 386.737 107.079H365.214C364.822 107.067 364.432 107.168 364.068 107.376C363.704 107.584 363.373 107.895 363.096 108.29C362.819 108.684 362.6 109.155 362.454 109.673C362.308 110.191 362.237 110.745 362.245 111.303C362.245 112.424 362.558 113.498 363.115 114.29C363.672 115.083 364.427 115.528 365.214 115.528Z" fill="white"/>
<path d="M367.07 100.303C367.07 101.423 367.383 102.498 367.94 103.29C368.497 104.082 369.252 104.527 370.039 104.527H381.852C382.244 104.539 382.634 104.438 382.998 104.23C383.362 104.022 383.692 103.711 383.97 103.316C384.247 102.922 384.466 102.451 384.612 101.933C384.758 101.415 384.829 100.861 384.82 100.303C384.82 99.1823 384.508 98.1079 383.951 97.3157C383.394 96.5234 382.639 96.0784 381.852 96.0784H370.039C369.257 96.1009 368.511 96.5531 367.957 97.3405C367.404 98.1279 367.086 99.1894 367.07 100.303Z" fill="white"/>
<path d="M374.429 93.5262H377.521C378.309 93.5262 379.064 93.0811 379.62 92.2889C380.177 91.4967 380.49 90.4222 380.49 89.3018C380.474 88.1885 380.156 87.1271 379.603 86.3397C379.049 85.5523 378.304 85.1 377.521 85.0775H374.429C373.641 85.0775 372.886 85.5226 372.33 86.3148C371.773 87.107 371.46 88.1815 371.46 89.3018C371.452 89.8599 371.523 90.4146 371.669 90.9325C371.815 91.4505 372.033 91.9209 372.311 92.3156C372.588 92.7103 372.919 93.021 373.283 93.2291C373.647 93.4371 374.037 93.5382 374.429 93.5262Z" fill="white"/>
<path d="M491.757 50.0507H522.371C523.192 50.0507 523.978 49.5871 524.558 48.7619C525.138 47.9366 525.464 46.8174 525.464 45.6503C525.464 44.4833 525.138 43.3641 524.558 42.5388C523.978 41.7136 523.192 41.25 522.371 41.25H491.757C490.937 41.25 490.15 41.7136 489.57 42.5388C488.99 43.3641 488.665 44.4833 488.665 45.6503C488.665 46.8174 488.99 47.9366 489.57 48.7619C490.15 49.5871 490.937 50.0507 491.757 50.0507Z" fill="white"/>
<path d="M517.856 52.6031H496.271C495.489 52.6256 494.743 53.0779 494.19 53.8653C493.636 54.6527 493.319 55.7142 493.303 56.8275C493.303 57.9478 493.615 59.0223 494.172 59.8145C494.729 60.6067 495.484 61.0518 496.271 61.0518H517.856C518.644 61.0518 519.399 60.6067 519.955 59.8145C520.512 59.0223 520.825 57.9478 520.825 56.8275C520.809 55.7142 520.491 54.6527 519.938 53.8653C519.384 53.0779 518.639 52.6256 517.856 52.6031Z" fill="white"/>
<path d="M515.939 67.8283C515.948 67.2703 515.877 66.7156 515.73 66.1976C515.584 65.6797 515.366 65.2092 515.088 64.8145C514.811 64.4198 514.48 64.1091 514.116 63.9011C513.752 63.693 513.363 63.592 512.971 63.604H501.158C500.37 63.604 499.615 64.049 499.059 64.8412C498.502 65.6335 498.189 66.7079 498.189 67.8283C498.205 68.9416 498.523 70.0031 499.076 70.7905C499.629 71.5778 500.375 72.0301 501.158 72.0526H512.971C513.758 72.0526 514.513 71.6075 515.07 70.8153C515.626 70.0231 515.939 68.9487 515.939 67.8283Z" fill="white"/>
<path d="M508.639 74.6048H505.547C505.155 74.5928 504.765 74.6939 504.401 74.9019C504.037 75.11 503.706 75.4207 503.429 75.8154C503.152 76.2101 502.933 76.6805 502.787 77.1985C502.641 77.7164 502.57 78.2711 502.578 78.8292C502.578 79.9495 502.891 81.024 503.448 81.8162C504.004 82.6084 504.76 83.0535 505.547 83.0535H508.639C509.422 83.031 510.168 82.5787 510.721 81.7913C511.274 81.0039 511.592 79.9425 511.608 78.8292C511.608 77.7088 511.295 76.6343 510.739 75.8421C510.182 75.0499 509.427 74.6048 508.639 74.6048Z" fill="white"/>
<path d="M522.371 118.52H491.756C490.936 118.52 490.15 118.984 489.57 119.809C488.99 120.634 488.664 121.754 488.664 122.921C488.664 124.088 488.99 125.207 489.57 126.032C490.15 126.857 490.936 127.321 491.756 127.321H522.371C523.191 127.321 523.978 126.857 524.558 126.032C525.137 125.207 525.463 124.088 525.463 122.921C525.463 121.754 525.137 120.634 524.558 119.809C523.978 118.984 523.191 118.52 522.371 118.52Z" fill="white"/>
<path d="M493.303 111.744C493.319 112.857 493.636 113.918 494.19 114.706C494.743 115.493 495.489 115.946 496.271 115.968H517.856C518.639 115.946 519.384 115.493 519.938 114.706C520.491 113.918 520.809 112.857 520.825 111.744C520.825 110.623 520.512 109.549 519.955 108.757C519.399 107.964 518.644 107.519 517.856 107.519H496.271C495.484 107.519 494.729 107.964 494.172 108.757C493.615 109.549 493.303 110.623 493.303 111.744Z" fill="white"/>
<path d="M501.158 104.967H512.971C513.363 104.979 513.752 104.878 514.116 104.67C514.48 104.462 514.811 104.151 515.088 103.757C515.366 103.362 515.584 102.891 515.73 102.373C515.877 101.856 515.948 101.301 515.939 100.743C515.939 99.6224 515.626 98.5479 515.07 97.7557C514.513 96.9635 513.758 96.5184 512.971 96.5184H501.158C500.375 96.5409 499.629 96.9932 499.076 97.7806C498.523 98.568 498.205 99.6294 498.189 100.743C498.189 101.863 498.502 102.938 499.059 103.73C499.615 104.522 500.37 104.967 501.158 104.967Z" fill="white"/>
<path d="M508.639 85.5177H505.547C504.76 85.5177 504.004 85.9628 503.448 86.755C502.891 87.5472 502.578 88.6217 502.578 89.742C502.57 90.3001 502.641 90.8548 502.787 91.3727C502.933 91.8907 503.152 92.3611 503.429 92.7558C503.706 93.1505 504.037 93.4612 504.401 93.6693C504.765 93.8773 505.155 93.9784 505.547 93.9664H508.639C509.427 93.9664 510.182 93.5213 510.739 92.7291C511.295 91.9369 511.608 90.8624 511.608 89.742C511.592 88.6287 511.274 87.5673 510.721 86.7799C510.168 85.9925 509.422 85.5402 508.639 85.5177Z" fill="white"/>
</svg>
