<svg width="65" height="64" viewBox="0 0 65 64" fill="none" xmlns="http://www.w3.org/2000/svg">
<path fill-rule="evenodd" clip-rule="evenodd" d="M54.9398 55.293C61.1323 49.4576 64.998 41.1803 64.998 32C64.998 14.3269 50.6712 0 32.998 0C15.3249 0 0.998047 14.3269 0.998047 32C0.998047 41.1803 4.86382 49.4576 11.0563 55.293C16.7851 60.6915 24.5052 64 32.998 64C41.4909 64 49.211 60.6915 54.9398 55.293ZM13.782 51.0763C18.2932 45.4492 25.2249 41.8462 32.998 41.8462C40.7712 41.8462 47.7029 45.4492 52.2141 51.0763C47.3087 56.0174 40.5107 59.0769 32.998 59.0769C25.4854 59.0769 18.6874 56.0174 13.782 51.0763ZM45.3057 22.1538C45.3057 28.9512 39.7954 34.4615 32.998 34.4615C26.2007 34.4615 20.6904 28.9512 20.6904 22.1538C20.6904 15.3565 26.2007 9.84615 32.998 9.84615C39.7954 9.84615 45.3057 15.3565 45.3057 22.1538Z" fill="white"/>
</svg>
