<svg width="326" height="99" viewBox="0 0 326 99" fill="none" xmlns="http://www.w3.org/2000/svg">
<rect width="325.999" height="99" rx="16" fill="white"/>
<path d="M29 37.5008H64.9987V61.5002H29V37.5008Z" fill="#F0F0F0"/>
<path d="M49.2493 37.4998H44.7494V47.2494H29V51.7492H44.7494V61.4988H49.2493V51.7492H64.9987V47.2494H49.2493V37.4998Z" fill="#D80027"/>
<path d="M56.687 53.673L64.9987 58.2907V53.673H56.687ZM50.9122 53.673L64.9987 61.4988V59.2859L54.8956 53.673H50.9122ZM61.2465 61.4988L50.9122 55.757V61.4988H61.2465Z" fill="#0052B4"/>
<path d="M50.9122 53.673L64.9987 61.4988V59.2859L54.8956 53.673H50.9122Z" fill="#F0F0F0"/>
<path d="M50.9122 53.673L64.9987 61.4988V59.2859L54.8956 53.673H50.9122Z" fill="#D80027"/>
<path d="M35.3519 53.673L29 57.2019V53.673H35.3519ZM43.0865 54.6682V61.4989H30.7923L43.0865 54.6682Z" fill="#0052B4"/>
<path d="M39.103 53.673L29 59.2859V61.4988L43.0865 53.673H39.103Z" fill="#D80027"/>
<path d="M37.3117 45.3256L29 40.7079V45.3256H37.3117ZM43.0865 45.3256L29 37.4998V39.7127L39.103 45.3256H43.0865ZM32.7522 37.4998L43.0865 43.2416V37.4998H32.7522Z" fill="#0052B4"/>
<path d="M43.0865 45.3256L29 37.4998V39.7127L39.103 45.3256H43.0865Z" fill="#F0F0F0"/>
<path d="M43.0865 45.3256L29 37.4998V39.7127L39.103 45.3256H43.0865Z" fill="#D80027"/>
<path d="M58.6468 45.3257L64.9987 41.7968V45.3257H58.6468ZM50.9122 44.3305V37.4998H63.2064L50.9122 44.3305Z" fill="#0052B4"/>
<path d="M54.8956 45.3256L64.9987 39.7127V37.4998L50.9122 45.3256H54.8956Z" fill="#D80027"/>
<path d="M86.7587 61V60.36L90.1587 58.72V36.88L86.7587 35.24V34.6H108.559V41.52H107.919L104.959 36.8H96.1987V46.28H102.359L104.599 42.84H105.239V51.84H104.599L102.359 48.48H96.1987V58.8H105.919L109.039 52.84H109.679V61H86.7587ZM113.465 61V60.36L116.145 59.08V46.92L113.585 45.28V44.8L120.865 42.36H121.345L121.705 45.32H121.905C122.865 44.3867 123.799 43.6667 124.705 43.16C125.612 42.6267 126.679 42.36 127.905 42.36C129.532 42.36 130.852 42.7733 131.865 43.6C132.905 44.4267 133.425 45.6533 133.425 47.28V59.08L136.105 60.36V61H125.785V60.36L127.785 59.08V48.92C127.785 47.9867 127.505 47.28 126.945 46.8C126.412 46.2933 125.732 46.04 124.905 46.04C124.399 46.04 123.839 46.1333 123.225 46.32C122.639 46.5067 122.145 46.7733 121.745 47.12V59.08L123.785 60.36V61H113.465ZM147.154 54.92C145.9 54.92 144.74 54.7067 143.674 54.28C143.087 54.6533 142.794 55.1733 142.794 55.84C142.794 57.12 143.82 57.76 145.874 57.76H150.274C152.38 57.76 153.927 58.2267 154.914 59.16C155.9 60.0667 156.394 61.4133 156.394 63.2C156.394 64.4267 155.967 65.6 155.114 66.72C154.26 67.8667 153.047 68.8 151.474 69.52C149.927 70.24 148.074 70.6 145.914 70.6C143.327 70.6 141.474 70.1867 140.354 69.36C139.234 68.56 138.674 67.5467 138.674 66.32C138.674 65.84 138.727 65.4 138.834 65C138.967 64.6267 139.154 64.24 139.394 63.84L141.914 62.24V62.04C139.86 61.3733 138.834 60.0533 138.834 58.08C138.834 56.8533 139.207 55.8533 139.954 55.08L142.234 53.76V53.52C141.38 52.96 140.7 52.2667 140.194 51.44C139.714 50.5867 139.474 49.6533 139.474 48.64C139.474 47.44 139.807 46.3733 140.474 45.44C141.167 44.5067 142.087 43.7733 143.234 43.24C144.38 42.68 145.687 42.4 147.154 42.4C147.927 42.4 148.687 42.48 149.434 42.64C150.18 42.8 150.767 42.9867 151.194 43.2L157.354 42.8V45.2L153.354 44.88L153.194 45.04C153.674 45.4667 154.06 46 154.354 46.64C154.647 47.28 154.794 47.9467 154.794 48.64C154.794 49.84 154.46 50.92 153.794 51.88C153.127 52.8133 152.207 53.56 151.034 54.12C149.887 54.6533 148.594 54.92 147.154 54.92ZM147.434 53.2C148.287 53.2 148.927 52.8 149.354 52C149.807 51.1733 150.034 50.0933 150.034 48.76C150.034 47.24 149.754 46.08 149.194 45.28C148.634 44.4533 147.914 44.04 147.034 44.04C146.127 44.04 145.447 44.4533 144.994 45.28C144.54 46.1067 144.314 47.1867 144.314 48.52C144.314 50.04 144.594 51.2 145.154 52C145.714 52.8 146.474 53.2 147.434 53.2ZM142.074 65.56C142.074 66.6 142.434 67.4533 143.154 68.12C143.874 68.8133 144.927 69.16 146.314 69.16C148.02 69.16 149.367 68.76 150.354 67.96C151.34 67.1867 151.834 66.2667 151.834 65.2C151.834 64.1867 151.567 63.48 151.034 63.08C150.5 62.68 149.567 62.48 148.234 62.48H144.794C144.394 62.48 144.007 62.4667 143.634 62.44C142.594 63.1067 142.074 64.1467 142.074 65.56ZM159.284 61V60.36L161.964 59.08V35.56L159.404 33.68V33.2L167.124 31H167.604V59.08L169.964 60.36V61H159.284ZM177.891 38.4C177.037 38.4 176.331 38.1333 175.771 37.6C175.237 37.04 174.971 36.3467 174.971 35.52C174.971 34.6667 175.237 33.9733 175.771 33.44C176.331 32.88 177.037 32.6 177.891 32.6C178.744 32.6 179.437 32.88 179.971 33.44C180.531 33.9733 180.811 34.6667 180.811 35.52C180.811 36.3467 180.531 37.04 179.971 37.6C179.437 38.1333 178.744 38.4 177.891 38.4ZM172.491 61V60.36L175.171 59.08V46.92L172.611 45.04V44.56L180.331 42.36H180.811V59.08L183.171 60.36V61H172.491ZM192.851 61.4C191.544 61.4 190.398 61.2667 189.411 61C188.451 60.76 187.504 60.4133 186.571 59.96V55.32H187.171L188.571 57.4C189.558 58.8933 190.931 59.64 192.691 59.64C194.771 59.64 195.811 58.88 195.811 57.36C195.811 56.8 195.664 56.3467 195.371 56C195.078 55.6533 194.598 55.32 193.931 55C193.291 54.68 192.398 54.28 191.251 53.8C189.758 53.1867 188.651 52.4667 187.931 51.64C187.211 50.8133 186.851 49.7867 186.851 48.56C186.851 47.4133 187.144 46.3733 187.731 45.44C188.344 44.5067 189.171 43.76 190.211 43.2C191.251 42.64 192.424 42.36 193.731 42.36C194.638 42.36 195.518 42.4533 196.371 42.64C197.251 42.8267 198.104 43.1333 198.931 43.56V48.32H198.331L197.091 46.44C196.584 45.6667 196.064 45.0933 195.531 44.72C194.998 44.3467 194.358 44.16 193.611 44.16C192.811 44.16 192.158 44.36 191.651 44.76C191.171 45.16 190.931 45.72 190.931 46.44C190.931 46.92 191.038 47.3333 191.251 47.68C191.491 48 191.904 48.32 192.491 48.64C193.078 48.96 193.918 49.3333 195.011 49.76C195.758 50.0533 196.491 50.4 197.211 50.8C197.958 51.1733 198.571 51.72 199.051 52.44C199.558 53.1333 199.811 54.1067 199.811 55.36C199.811 56.6133 199.478 57.6933 198.811 58.6C198.144 59.5067 197.278 60.2 196.211 60.68C195.171 61.16 194.051 61.4 192.851 61.4ZM203.192 61V60.36L205.872 59.08V35.56L203.312 33.68V33.2L210.992 31H211.472V45.32H211.632C212.592 44.3867 213.525 43.6667 214.432 43.16C215.338 42.6267 216.405 42.36 217.632 42.36C219.258 42.36 220.578 42.7733 221.592 43.6C222.632 44.4267 223.152 45.6533 223.152 47.28V59.08L225.832 60.36V61H215.512V60.36L217.512 59.12V48.92C217.512 47.9867 217.232 47.28 216.672 46.8C216.138 46.2933 215.458 46.04 214.632 46.04C214.125 46.04 213.565 46.1333 212.952 46.32C212.365 46.5067 211.872 46.7733 211.472 47.12V59.12L213.512 60.36V61H203.192Z" fill="black"/>
<path d="M277.001 53.4173L290.728 37.2995L290.729 37.298C291.383 36.5362 292.317 36.0614 293.324 35.9738C294.332 35.8862 295.335 36.1925 296.115 36.8283C296.895 37.4645 297.388 38.3796 297.482 39.3745C297.576 40.3695 297.264 41.3589 296.615 42.1259L296.614 42.1273L279.944 61.6993L279.944 61.6998C279.583 62.1226 279.132 62.4619 278.624 62.6945C278.115 62.9271 277.562 63.0474 277.001 63.0474C276.441 63.0474 275.887 62.9271 275.379 62.6945C274.871 62.4619 274.42 62.1226 274.059 61.6998L274.058 61.6993L257.389 42.1273L257.389 42.1269C256.737 41.3602 256.422 40.3697 256.515 39.3729C256.608 38.3762 257.101 37.4591 257.883 36.8219C258.664 36.1849 259.669 35.8787 260.678 35.9678C261.687 36.0568 262.621 36.5343 263.274 37.299L263.275 37.2995L277.001 53.4173Z" fill="#5C5A5A" stroke="#5C5A5A"/>
</svg>
