<svg width="26" height="27" viewBox="0 0 26 27" fill="none" xmlns="http://www.w3.org/2000/svg">
<path d="M25.0981 23.6403L19.8171 18.3594C21.4059 16.2981 22.1988 13.7257 22.0382 11.1168C21.8671 8.33969 20.6289 5.73629 18.5825 3.85117C16.5361 1.96605 13.8401 0.945234 11.0583 1.00227C8.27655 1.0593 5.62459 2.18976 3.65718 4.15718C1.68976 6.12459 0.5593 8.77655 0.502267 11.5583C0.445234 14.3401 1.46605 17.0361 3.35117 19.0825C5.23629 21.1289 7.83969 22.3671 10.6168 22.5381C13.2257 22.6988 15.7981 21.9059 17.8594 20.3171L23.141 25.5987C23.1412 25.599 23.1415 25.5992 23.1417 25.5995C23.2677 25.7263 23.4175 25.8269 23.5824 25.8957C23.7478 25.9645 23.9251 26 24.1042 26C24.2833 26 24.4606 25.9645 24.6259 25.8957C24.7862 25.8289 24.9322 25.7319 25.0559 25.6101C25.1894 25.4891 25.2975 25.3425 25.3738 25.1791C25.4524 25.0108 25.4955 24.8281 25.5006 24.6424C25.5057 24.4567 25.4726 24.272 25.4034 24.0996C25.3343 23.9278 25.2309 23.7719 25.0993 23.6416C25.0989 23.6412 25.0985 23.6407 25.0981 23.6403ZM11.2893 19.8211C9.69403 19.8211 8.13455 19.3481 6.80809 18.4618C5.48163 17.5755 4.44779 16.3157 3.83729 14.8418C3.22679 13.368 3.06705 11.7461 3.37828 10.1815C3.68951 8.61682 4.45773 7.17958 5.58579 6.05152C6.71385 4.92347 8.15108 4.15525 9.71574 3.84402C11.2804 3.53279 12.9022 3.69252 14.3761 4.30302C15.85 4.91352 17.1097 5.94737 17.996 7.27383C18.8823 8.60028 19.3554 10.1598 19.3554 11.7551C19.3554 12.8143 19.1468 13.8632 18.7414 14.8418C18.3361 15.8204 17.7419 16.7096 16.9929 17.4586C16.2439 18.2076 15.3547 18.8018 14.3761 19.2071C13.3975 19.6125 12.3486 19.8211 11.2893 19.8211Z" fill="white" stroke="white"/>
</svg>
