<svg width="25" height="16" viewBox="0 0 25 16" fill="none" xmlns="http://www.w3.org/2000/svg">
<path d="M13.0001 10.8128L21.4646 0.873906C21.8051 0.4772 22.2925 0.228704 22.8199 0.182837C23.3473 0.136971 23.8718 0.297469 24.2786 0.629188C24.6853 0.960906 24.9411 1.43681 24.99 1.95268C25.0389 2.46855 24.8768 2.98235 24.5393 3.38156L14.5375 15.1247C14.3495 15.3449 14.1144 15.5221 13.8487 15.6436C13.5831 15.7651 13.2934 15.8281 13.0002 15.8281C12.7069 15.8281 12.4172 15.7651 12.1516 15.6436C11.8859 15.5221 11.6508 15.3449 11.4628 15.1247L1.46105 3.38156C1.12194 2.98253 0.958576 2.46811 1.00685 1.95131C1.05512 1.43451 1.31108 0.957582 1.7185 0.625307C2.12592 0.293032 2.65148 0.132576 3.17973 0.179189C3.70799 0.225801 4.19573 0.475672 4.53582 0.873906L13.0001 10.8128Z" fill="white"/>
</svg>
