<svg width="80" height="80" viewBox="0 0 80 80" fill="none" xmlns="http://www.w3.org/2000/svg">
<path fill-rule="evenodd" clip-rule="evenodd" d="M40 0C62.0766 0 80 17.9234 80 40C80 62.0766 62.0766 80 40 80C17.9234 80 0 62.0766 0 40C0 17.9234 17.9234 0 40 0ZM32.68 61.1C50.42 61.1 60.12 46.4 60.12 33.66C60.12 33.24 60.12 32.82 60.1 32.42C61.98 31.06 63.62 29.36 64.92 27.42C63.2 28.18 61.34 28.7 59.38 28.94C61.38 27.74 62.9 25.86 63.62 23.6C61.76 24.7 59.7 25.5 57.5 25.94C55.74 24.06 53.24 22.9 50.46 22.9C45.14 22.9 40.82 27.22 40.82 32.54C40.82 33.3 40.9 34.04 41.08 34.74C33.06 34.34 25.96 30.5 21.2 24.66C20.38 26.08 19.9 27.74 19.9 29.5C19.9 32.84 21.6 35.8 24.2 37.52C22.62 37.48 21.14 37.04 19.84 36.32V36.44C19.84 41.12 23.16 45 27.58 45.9C26.78 46.12 25.92 46.24 25.04 46.24C24.42 46.24 23.82 46.18 23.22 46.06C24.44 49.9 28 52.68 32.22 52.76C28.92 55.34 24.76 56.88 20.24 56.88C19.46 56.88 18.7 56.84 17.94 56.74C22.16 59.5 27.24 61.1 32.68 61.1Z" fill="white"/>
</svg>
