<svg width="36" height="30" viewBox="0 0 36 30" fill="none" xmlns="http://www.w3.org/2000/svg">
<path d="M36 3.50955C35.7592 4.01793 35.311 4.66008 34.6555 5.43597C34 6.21186 33.1907 6.89415 32.2274 7.48278C32.2542 7.69686 32.2743 7.8975 32.2876 8.08479C32.3915 10.9684 31.7008 13.9602 30.7425 16.4527C28.8849 21.0869 26.0386 24.8165 21.9732 27.349C17.7338 29.7807 12.7965 30.2979 8.24748 29.8573C5.2275 29.5105 2.25099 28.5244 0 26.6667C4.11699 27.1588 7.95915 25.7583 10.9966 23.4961C7.62249 23.5815 5.17092 21.1407 4.0134 18.3189C4.53519 18.4556 5.08104 18.4391 5.57862 18.3992C6.1911 18.3416 6.7725 18.2842 7.34451 18.1584C5.193 17.4642 3.31044 16.1881 2.32779 14.2654C1.7514 13.0471 1.49115 11.8869 1.485 10.5731C2.49315 11.1039 3.70584 11.6212 4.81611 11.5764C3.13935 10.156 1.79511 8.34069 1.54521 6.25866C1.38744 4.52268 1.82184 2.93802 2.44824 1.46268C4.95645 4.21923 7.77069 6.48774 11.0168 7.88409C13.2367 8.79315 15.4504 9.2793 17.7392 9.28875C17.475 7.2444 17.6804 5.26725 18.6422 3.58974C19.7741 1.7862 21.4256 0.739797 23.2777 0.218487C25.9278 -0.461073 28.5126 0.498837 30.1406 2.34558C31.8962 2.15595 33.578 1.37709 34.9165 0.579687C34.3478 2.30199 33.2403 4.01445 31.6256 4.83387C33.163 4.54923 34.63 4.0941 36 3.50955Z" fill="#00ACEE"/>
</svg>
