<svg width="45" height="45" viewBox="0 0 45 45" fill="none" xmlns="http://www.w3.org/2000/svg">
<path d="M15.6137 39C11.3389 39 7.35402 37.65 4 35.3207C6.84767 35.5207 11.8732 35.0416 14.999 31.8043C10.2967 31.57 8.17606 27.6542 7.89945 25.9807C8.299 26.1481 10.2045 26.3489 11.2802 25.8803C5.87101 24.4077 5.04119 19.2536 5.22559 17.6805C6.23982 18.4503 7.96092 18.7181 8.63707 18.6511C3.59669 14.7353 5.41 8.84483 6.30129 7.57302C9.91845 13.0142 15.3394 16.0701 22.0459 16.2401C21.9195 15.6379 21.8527 15.011 21.8527 14.3671C21.8527 9.7461 25.2927 6 29.5362 6C31.7534 6 33.7512 7.02265 35.1536 8.65842C36.6352 8.28146 38.865 7.39901 39.955 6.6359C39.4056 8.77789 37.695 10.5647 36.6603 11.227C36.6689 11.2496 36.6519 11.2044 36.6603 11.227C37.5692 11.0777 40.0285 10.5646 41 9.84888C40.5196 11.0522 38.706 13.053 37.2177 14.1731C37.4946 27.4329 28.1511 39 15.6137 39Z" fill="#244D4D"/>
</svg>
