<svg width="23" height="32" viewBox="0 0 23 32" fill="none" xmlns="http://www.w3.org/2000/svg">
<path d="M14.5043 16.002L2.52771 26.2019L2.52621 26.2032C1.92974 26.7152 1.55845 27.4457 1.48995 28.2334C1.42145 29.021 1.66086 29.8059 2.15853 30.4161C2.65651 31.0267 3.37327 31.4132 4.15322 31.4871C4.93328 31.561 5.70858 31.3156 6.30927 30.8078L6.31067 30.8066L20.9896 18.3044L20.9901 18.304C21.3212 18.0213 21.5868 17.6684 21.7687 17.2708C21.9506 16.8732 22.0447 16.4401 22.0447 16.002C22.0447 15.564 21.9506 15.1309 21.7687 14.7333C21.5868 14.3357 21.3212 13.9828 20.9901 13.7001L20.9896 13.6997L6.31067 1.19749L6.31026 1.19715C5.70985 0.686891 4.93362 0.439562 4.15215 0.512556C3.37079 0.585541 2.65249 0.972326 2.15368 1.58395C1.65517 2.19519 1.41583 2.98158 1.48544 3.77045C1.55505 4.55939 1.9284 5.29046 2.5272 5.80182L2.52771 5.80226L14.5043 16.002Z" fill="#EB6223" stroke="#EB6223"/>
</svg>
