<svg width="18" height="26" viewBox="0 0 18 26" fill="none" xmlns="http://www.w3.org/2000/svg">
<path d="M11.027 12.9984L1.53506 4.91463L1.53357 4.91334C1.03627 4.48642 0.727101 3.87779 0.670066 3.22194C0.613038 2.56617 0.81232 1.91248 1.22706 1.40394C1.64211 0.895037 2.2399 0.572441 2.89088 0.510775C3.54197 0.449099 4.18882 0.653939 4.68971 1.0774L4.68971 1.0774L4.69111 1.07858L16.4343 11.0803L16.4348 11.0808C16.7108 11.3165 16.9321 11.6106 17.0836 11.9418C17.2351 12.273 17.3135 12.6336 17.3135 12.9984C17.3135 13.3631 17.2351 13.7238 17.0836 14.055C16.9321 14.3862 16.7108 14.6803 16.4348 14.916L16.4343 14.9164L4.69111 24.9181L4.6907 24.9185C4.19004 25.344 3.54243 25.5504 2.89015 25.4895C2.238 25.4286 1.63893 25.1058 1.22318 24.596C0.807746 24.0867 0.608516 23.4317 0.666472 22.7749C0.724435 22.118 1.03532 21.5088 1.53455 21.0825L1.53507 21.0821L11.027 12.9984Z" fill="#004B9D" stroke="#004B9D"/>
</svg>
