<svg width="17" height="16" viewBox="0 0 17 16" fill="none" xmlns="http://www.w3.org/2000/svg">
<g clip-path="url(#clip0_1091_1974)">
<path d="M0.712891 15.9104L2.08118 11.8058C1.38689 10.638 0.987207 9.27519 0.987207 7.81802C0.987207 3.50028 4.48749 0 8.80523 0C13.123 0 16.6233 3.50028 16.6233 7.81802C16.6233 12.1358 13.123 15.636 8.80523 15.636C7.49153 15.636 6.25436 15.3104 5.16779 14.7382L0.712891 15.9104Z" fill="#2CB742"/>
<path d="M13.7943 10.4208C13.4333 9.73859 12.102 8.95843 12.102 8.95843C11.8008 8.78671 11.4373 8.76751 11.2656 9.07364C11.2656 9.07364 10.833 9.59238 10.723 9.66699C10.2205 10.0074 9.75495 9.99425 9.28504 9.52435L8.19299 8.43229L7.10093 7.34024C6.63103 6.87033 6.61786 6.40482 6.95829 5.90227C7.0329 5.79227 7.55164 5.35967 7.55164 5.35967C7.85777 5.18768 7.83857 4.82448 7.66685 4.52328C7.66685 4.52328 6.88669 3.19202 6.20447 2.83102C5.91424 2.6774 5.5579 2.73117 5.32583 2.96324L4.84358 3.44549C3.31372 4.97535 4.06699 6.70245 5.59686 8.23232L6.99505 9.63051L8.39324 11.0287C9.9231 12.5586 11.6502 13.3118 13.1801 11.782L13.6623 11.2997C13.8944 11.0671 13.9479 10.7108 13.7943 10.4208Z" fill="white"/>
</g>
<defs>
<clipPath id="clip0_1091_1974">
<rect width="15.9104" height="15.9104" fill="white" transform="translate(0.712891)"/>
</clipPath>
</defs>
</svg>
