<svg width="22" height="16" viewBox="0 0 22 16" fill="none" xmlns="http://www.w3.org/2000/svg">
<path d="M1.70653 1.99143C0.751906 2.94605 0.778424 3.98022 0.91101 4.37798V12.7309C0.91101 14.0037 2.76692 15.1175 3.69487 15.5152C7.40729 15.6478 15.5481 15.8334 18.412 15.5152C21.2758 15.197 21.7266 12.9961 21.594 11.9354V3.98022C21.594 2.07098 19.7378 0.79815 18.8097 0.400391H5.68367C3.29756 0.400391 2.89996 0.798 1.7072 1.99075L1.70653 1.99143Z" fill="#F71818"/>
<path d="M8.86719 11.5373V4.77539L14.4358 7.95746L8.86719 11.5373Z" fill="white"/>
<path d="M17.7125 0.00195312H4.73133C2.36795 0.00195312 0.445312 1.93075 0.445312 4.30116V11.5373C0.445312 13.9082 2.36795 15.8365 4.73133 15.8365H17.7125C20.0759 15.8365 21.9986 13.9078 21.9986 11.5373V4.30116C21.9986 1.93075 20.0759 0.00195312 17.7125 0.00195312ZM21.1188 11.5378C21.1188 13.4235 19.5907 14.9573 17.7125 14.9573H4.73133C2.85312 14.9573 1.32504 13.423 1.32504 11.5378V4.30116C1.32504 2.41592 2.85312 0.881677 4.73133 0.881677H17.7125C19.5907 0.881677 21.1188 2.41592 21.1188 4.30116V11.5378Z" fill="#F61818"/>
<path d="M15.1196 7.7605L9.02527 4.19102C8.8898 4.11184 8.72133 4.11052 8.58453 4.18882C8.44773 4.26711 8.36328 4.41271 8.36328 4.57062V11.7091C8.36328 11.8666 8.44774 12.0126 8.58409 12.0909C8.65183 12.1296 8.72749 12.149 8.80314 12.149C8.88012 12.149 8.95665 12.1288 9.02527 12.0887L15.1196 8.52014C15.2542 8.4414 15.3373 8.29669 15.3373 8.14054C15.3373 7.98439 15.2546 7.83923 15.1196 7.7605ZM9.24301 10.9416V5.33774L14.0269 8.1401L9.24301 10.9416Z" fill="white"/>
</svg>
