<svg width="22" height="16" viewBox="0 0 22 16" fill="none" xmlns="http://www.w3.org/2000/svg">
<path d="M1.26122 1.98947C0.306594 2.9441 0.333111 3.97827 0.465698 4.37603V12.729C0.465698 14.0018 2.32161 15.1155 3.24956 15.5133C6.96198 15.6459 15.1028 15.8315 17.9667 15.5133C20.8305 15.1951 21.2813 12.9941 21.1487 11.9334V3.97827C21.1487 2.06903 19.2925 0.796197 18.3644 0.398438H5.23836C2.85225 0.398438 2.45464 0.796047 1.26189 1.9888L1.26122 1.98947Z" fill="#244D4D"/>
<path d="M8.42188 11.5353V4.77344L13.9905 7.95551L8.42188 11.5353Z" fill="white"/>
<path d="M17.2672 0H4.28602C1.92264 0 0 1.92879 0 4.29921V11.5354C0 13.9062 1.92264 15.8346 4.28602 15.8346H17.2672C19.6306 15.8346 21.5532 13.9058 21.5532 11.5354V4.29921C21.5532 1.92879 19.6306 0 17.2672 0ZM20.6735 11.5358C20.6735 13.4215 19.1454 14.9553 17.2672 14.9553H4.28602C2.4078 14.9553 0.879724 13.4211 0.879724 11.5358V4.29921C0.879724 2.41396 2.4078 0.879724 4.28602 0.879724H17.2672C19.1454 0.879724 20.6735 2.41396 20.6735 4.29921V11.5358Z" fill="#244D4D"/>
<path d="M14.6743 7.75854L8.57996 4.18906C8.44448 4.10989 8.27602 4.10857 8.13922 4.18687C8.00242 4.26516 7.91797 4.41075 7.91797 4.56867V11.7072C7.91797 11.8647 8.00242 12.0107 8.13878 12.089C8.20652 12.1277 8.28217 12.147 8.35783 12.147C8.43481 12.147 8.51134 12.1268 8.57996 12.0868L14.6743 8.51819C14.8088 8.43945 14.892 8.29474 14.892 8.13859C14.892 7.98243 14.8093 7.83728 14.6743 7.75854ZM8.79769 10.9396V5.33578L13.5816 8.13815L8.79769 10.9396Z" fill="white"/>
</svg>
